<svg width="431" height="1054" viewBox="0 0 431 1054" fill="none" xmlns="http://www.w3.org/2000/svg">
<rect width="430" height="1054" fill="#008AEF"/>
<mask id="mask0_60_391" style="mask-type:alpha" maskUnits="userSpaceOnUse" x="0" y="-1" width="431" height="1055">
<rect x="0.15332" y="-0.000488281" width="430" height="1054" fill="#008AEF"/>
</mask>
<g mask="url(#mask0_60_391)">
<rect x="-31" y="759.104" width="31.0585" height="368.399" transform="rotate(-26.2325 -31 759.104)" fill="white"/>
<rect x="346.188" y="391.08" width="31.0585" height="189.99" transform="rotate(-26.2325 346.188 391.08)" fill="white"/>
<rect x="-6.05627" y="581.471" width="31.0585" height="512.018" transform="rotate(-117.901 -6.05627 581.471)" fill="white"/>
<path d="M353.987 43.934C353.253 42.4347 352.899 40.7883 352.26 39.2522C349.775 33.2658 350.973 23.2954 350.973 23.2954C352.029 8.05173 376.125 -6.92045 390.158 1.12178C404.108 9.11948 412.527 46.0377 396.312 70.7304C380.114 95.4385 353.038 97.8437 353.038 97.8437C372.868 85.4943 357.291 50.8184 353.955 43.9356L353.987 43.934ZM287.769 54.0112C287.769 54.0112 287.319 37.3369 302.609 23.2637C317.9 9.19051 328.685 4.82363 323.795 -16.195C323.795 -16.195 275.176 2.54768 287.769 54.0112ZM330.188 -18.5789C338.099 0.811959 322.38 18.7159 312.681 24.8401C302.997 30.9474 288.211 49.1142 292.027 65.2748C295.826 81.4201 330.829 105.752 348.696 98.2096C366.562 90.6675 354.401 59.5283 347.318 44.9262C340.235 30.3242 345.229 18.7218 345.229 18.7218C357.296 -9.27933 384.367 -6.11369 384.367 -6.11369C355.948 -29.173 330.188 -18.5789 330.188 -18.5789Z" fill="white"/>
<path d="M348.077 1008.63C348.775 1008.64 349.454 1008.82 350.147 1008.88C352.846 1009.1 356.325 1011.44 356.325 1011.44C361.791 1014.74 362.766 1026.55 357.102 1030.23C351.47 1033.9 336.14 1029.99 330.049 1019.26C323.95 1008.53 328.215 998.003 328.215 998.003C329.028 1007.73 344.888 1008.55 348.083 1008.62L348.077 1008.63ZM356.949 982.089C356.949 982.089 363.234 985.099 365.552 993.466C367.871 1001.83 367.439 1006.67 376.186 1008.86C376.186 1008.86 378.482 987.214 356.949 982.089ZM375.854 1011.69C367.137 1010.94 363.476 1001.68 363.047 996.91C362.622 992.146 358.685 983.187 351.95 981.526C345.223 979.862 329.507 988.239 328.906 996.319C328.306 1004.4 342.201 1005.81 348.979 1005.96C355.758 1006.11 359.12 1010.18 359.12 1010.18C367.231 1020 360.896 1029.46 360.896 1029.46C374.884 1023.29 375.854 1011.69 375.854 1011.69Z" fill="white"/>
</g>
</svg>
