<svg width="1728" height="1019" viewBox="0 0 1728 1019" fill="none" xmlns="http://www.w3.org/2000/svg">
<rect x="213" y="801.572" width="38" height="238.134" transform="rotate(-24.1912 213 801.572)" fill="white"/>
<rect x="1442" y="208.98" width="38" height="697.258" transform="rotate(-24.1912 1442 208.98)" fill="white"/>
<rect x="-0.12682" y="935.117" width="38" height="1936.4" transform="rotate(-115.86 -0.12682 935.117)" fill="white"/>
<path d="M998.874 172.281C997.456 169.387 996.772 166.208 995.538 163.242C990.74 151.684 993.053 132.434 993.053 132.434C995.092 103.002 1041.61 74.0949 1068.71 89.6223C1095.64 105.064 1111.9 176.343 1080.59 224.018C1049.32 271.723 997.04 276.367 997.04 276.367C1035.33 252.523 1005.25 185.573 998.811 172.284L998.874 172.281ZM871.023 191.738C871.023 191.738 870.154 159.544 899.676 132.372C929.198 105.201 950.022 96.7696 940.58 56.1883C940.58 56.1883 846.709 92.3753 871.023 191.738ZM952.922 51.5856C968.198 89.0241 937.849 123.592 919.121 135.416C900.424 147.208 871.876 182.283 879.243 213.485C886.578 244.657 954.161 291.635 988.656 277.073C1023.15 262.511 999.672 202.39 985.997 174.197C972.321 146.004 981.964 123.603 981.964 123.603C1005.26 69.5405 1057.53 75.6525 1057.53 75.6525C1002.66 31.1312 952.922 51.5856 952.922 51.5856Z" fill="white"/>
<path d="M702.196 872.245C703.78 872.944 705.161 874.014 706.695 874.806C712.668 877.897 718.38 886.61 718.38 886.61C727.727 899.415 718.608 927.399 702.096 930.394C685.68 933.368 654.328 909.692 650.698 879.259C647.043 848.825 666.926 828.823 666.926 828.823C659.439 851.876 694.973 868.988 702.22 872.222L702.196 872.245ZM748.018 819.998C748.018 819.998 759.517 832.931 756.786 854.318C754.054 875.705 748.412 886.378 766.338 899.793C766.338 899.793 792.402 852.428 748.018 819.998ZM762.858 905.956C743.621 895.853 744.133 871.139 747.739 859.797C751.344 848.478 750.94 824.18 737.112 813.903C723.308 803.628 679.268 807.706 670.127 825.631C660.987 843.556 691.447 860.144 706.826 867C722.205 873.857 725.994 886.403 725.994 886.403C735.128 916.69 711.527 932.267 711.527 932.267C749.491 931.578 762.858 905.956 762.858 905.956Z" fill="white"/>
</svg>
