<svg width="40" height="38" viewBox="0 0 40 38" fill="none" xmlns="http://www.w3.org/2000/svg">
<path d="M9.36767 13.1812C9.36767 13.1812 1.755 16.496 3.69225 22.4967C5.6295 28.4973 28.6053 23.8094 21.5953 37.7152C21.149 38.6013 23.8238 34.4233 24.2199 33.1263C24.2242 33.1149 26.5948 27.6686 19.4844 26.0255C12.9695 24.5203 12.7198 25.0991 8.56263 23.5164C8.41339 23.459 8.63725 23.2579 8.78362 23.3182C9.89431 23.7735 12.0827 24.4873 15.4707 24.8306C20.5693 25.3462 26.1729 26.0614 25.177 32.3436C25.177 32.3436 31.6905 24.967 19.8173 24.1297C7.94415 23.2923 4.084 20.0263 9.36767 13.1812Z" fill="url(#paint0_linear_72_382)"/>
<path d="M10.3579 13.3133C10.3579 13.3133 5.28516 17.5258 9.99339 21.2084C14.5251 24.7531 25.2761 21.6795 27.6281 27.1602C27.6281 27.1602 28.1346 23.5552 22.4922 22.8558C16.8498 22.1577 6.31118 21.2543 10.3579 13.3119V13.3133Z" fill="url(#paint1_linear_72_382)"/>
<path d="M12.6466 8.23337C12.6036 8.34252 12.5347 8.43875 12.4845 8.54503C12.2893 8.95867 11.711 9.37088 11.711 9.37088C10.8643 10.0402 8.93715 9.49152 8.69033 8.37699C8.44351 7.26246 9.97321 5.07362 12.0353 4.74759C14.096 4.42156 15.508 5.71993 15.508 5.71993C13.9209 5.27039 12.8475 7.73068 12.6466 8.23337ZM16.3202 11.2136C16.3202 11.2136 15.4707 12.0279 14.007 11.8987C12.5447 11.7694 11.8043 11.4118 10.939 12.6656C10.939 12.6656 14.228 14.3159 16.3202 11.2136ZM10.5085 12.4445C11.1456 11.1102 12.8289 11.08 13.6095 11.2969C14.3887 11.5138 16.0418 11.4218 16.7048 10.4567C17.3678 9.49152 16.976 6.507 15.7333 5.93106C14.4906 5.35656 13.4402 7.46928 13.0125 8.53354C12.5863 9.59781 11.7411 9.88649 11.7411 9.88649C9.70631 10.5845 8.58557 9.02043 8.58557 9.02043C8.73051 11.5999 10.507 12.443 10.507 12.443L10.5085 12.4445Z" fill="url(#paint2_linear_72_382)"/>
<path d="M39.9905 5.80749C38.9186 15.4174 20.6223 18.3158 20.6223 18.3158C41.8933 12.9772 39.7337 4.6944 39.7337 4.6944L39.7753 4.48901C37.7074 -2.79995 21.6498 -0.440195 17.2688 6.05452C17.7667 6.83153 18.0681 7.7493 18.0982 8.74031C18.1814 11.4476 16.2169 13.7413 13.6038 14.132C13.4502 15.8124 13.9209 16.4444 11.7498 19.245C11.7498 19.245 14.0156 20.6626 17.4625 21.296C17.4625 21.296 19.8546 19.6314 23.6703 19.021C27.4859 18.4106 40.4282 14.7137 39.9891 5.80749H39.9905ZM34.9695 4.77626C35.3469 4.62258 35.7257 4.67572 35.8161 4.89691C35.9065 5.11809 35.6726 5.42114 35.2952 5.57625C34.9178 5.72993 34.539 5.67679 34.4486 5.45561C34.3582 5.23443 34.5921 4.93138 34.9695 4.77626ZM34.9049 7.28826C35.2823 7.13458 35.6611 7.18772 35.7515 7.40891C35.8419 7.63009 35.608 7.93314 35.2306 8.08825C34.8532 8.24193 34.4744 8.18879 34.384 7.96761C34.2936 7.74643 34.5275 7.44338 34.9049 7.28826ZM33.0136 4.02654C33.391 3.87286 33.7698 3.926 33.8602 4.14719C33.9506 4.36837 33.7167 4.67142 33.3393 4.82653C32.9619 4.98021 32.5831 4.92707 32.4927 4.70589C32.4023 4.4847 32.6362 4.18166 33.0136 4.02654ZM32.9246 6.51125C33.302 6.35757 33.6808 6.41071 33.7712 6.6319C33.8616 6.85308 33.6277 7.15613 33.2503 7.31124C32.8729 7.46492 32.4941 7.41178 32.4037 7.1906C32.3133 6.96941 32.5472 6.66637 32.9246 6.51125ZM32.86 9.02469C33.2374 8.87101 33.6163 8.92415 33.7067 9.14533C33.7971 9.36651 33.5632 9.66956 33.1858 9.82468C32.8084 9.97836 32.4295 9.92521 32.3391 9.70403C32.2487 9.48285 32.4826 9.1798 32.86 9.02469ZM31.0577 3.24953C31.4351 3.09585 31.8139 3.14899 31.9043 3.37017C31.9947 3.59136 31.7608 3.89441 31.3834 4.04952C31.006 4.20464 30.6272 4.15006 30.5368 3.92888C30.4463 3.70769 30.6803 3.40464 31.0577 3.24953ZM30.9673 5.76297C31.3447 5.60929 31.7235 5.66243 31.8139 5.88361C31.9043 6.10479 31.6704 6.40784 31.293 6.56296C30.9156 6.71663 30.5368 6.66349 30.4463 6.44231C30.3559 6.22113 30.5898 5.91808 30.9673 5.76297ZM30.8812 8.27066C31.2586 8.11698 31.6374 8.17012 31.7278 8.3913C31.8182 8.61248 31.5843 8.91553 31.2069 9.07065C30.8295 9.22433 30.4507 9.17118 30.3602 8.95C30.2698 8.72882 30.5037 8.42577 30.8812 8.27066ZM30.8166 10.7827C31.194 10.629 31.5728 10.6821 31.6632 10.9033C31.7536 11.1245 31.5197 11.4275 31.1423 11.5826C30.7649 11.7363 30.3861 11.6832 30.2957 11.462C30.2053 11.2408 30.4392 10.9378 30.8166 10.7827ZM29.1061 2.48114C29.4835 2.32746 29.8623 2.3806 29.9527 2.60178C30.0431 2.82296 29.8092 3.12601 29.4318 3.28113C29.0544 3.43624 28.6756 3.38166 28.5852 3.16048C28.4947 2.9393 28.7287 2.63625 29.1061 2.48114ZM29.0128 4.98452C29.3902 4.83084 29.769 4.88398 29.8594 5.10516C29.9498 5.32635 29.7159 5.62939 29.3385 5.78451C28.9611 5.93819 28.5823 5.88505 28.4919 5.66386C28.4015 5.44268 28.6354 5.13963 29.0128 4.98452ZM28.9238 7.52093C29.3012 7.36726 29.6801 7.4204 29.7705 7.64158C29.8609 7.86276 29.627 8.16581 29.2496 8.32093C28.8722 8.4746 28.4933 8.42146 28.4029 8.20028C28.3125 7.9791 28.5464 7.67605 28.9238 7.52093ZM28.8377 10.0214C29.2151 9.86776 29.594 9.92091 29.6844 10.1421C29.7748 10.3633 29.5409 10.6663 29.1635 10.8214C28.7861 10.9751 28.4072 10.922 28.3168 10.7008C28.2264 10.4796 28.4603 10.1766 28.8377 10.0214ZM28.7731 12.5334C29.1505 12.3798 29.5294 12.4329 29.6198 12.6541C29.7102 12.8753 29.4763 13.1783 29.0989 13.3334C28.7215 13.4871 28.3426 13.434 28.2522 13.2128C28.1618 12.9916 28.3957 12.6886 28.7731 12.5334ZM27.0612 4.21612C27.4386 4.06245 27.8174 4.11559 27.9078 4.33677C27.9982 4.55795 27.7643 4.861 27.3869 5.01612C27.0095 5.16979 26.6307 5.11665 26.5403 4.89547C26.4499 4.67429 26.6838 4.37124 27.0612 4.21612ZM26.9693 6.74392C27.3468 6.59024 27.7256 6.64339 27.816 6.86457C27.9064 7.08575 27.6725 7.3888 27.2951 7.54391C26.9177 7.69759 26.5388 7.64445 26.4484 7.42327C26.358 7.20209 26.5919 6.89904 26.9693 6.74392ZM26.8804 9.27172C27.2578 9.11804 27.6366 9.17118 27.727 9.39237C27.8174 9.61355 27.5835 9.9166 27.2061 10.0717C26.8287 10.2254 26.4499 10.1722 26.3595 9.95107C26.2691 9.72988 26.503 9.42684 26.8804 9.27172ZM26.7971 11.7593C27.1746 11.6056 27.5534 11.6588 27.6438 11.8799C27.7342 12.1011 27.5003 12.4042 27.1229 12.5593C26.7455 12.7144 26.3666 12.6598 26.2762 12.4387C26.1858 12.2175 26.4197 11.9144 26.7971 11.7593ZM25.111 3.4506C25.4884 3.29693 25.8673 3.35007 25.9577 3.57125C26.0481 3.79243 25.8142 4.09548 25.4368 4.25059C25.0594 4.40427 24.6805 4.35113 24.5901 4.12995C24.4997 3.90877 24.7336 3.60572 25.111 3.4506ZM25.0177 5.97553C25.3952 5.82185 25.774 5.87499 25.8644 6.09617C25.9548 6.31736 25.7209 6.62041 25.3435 6.77552C24.9661 6.93064 24.5872 6.87606 24.4968 6.65488C24.4064 6.43369 24.6403 6.13064 25.0177 5.97553ZM24.9259 8.49471C25.3033 8.34103 25.6822 8.39417 25.7726 8.61536C25.863 8.83654 25.6291 9.13959 25.2517 9.2947C24.8743 9.44838 24.4954 9.39524 24.405 9.17406C24.3146 8.95287 24.5485 8.64983 24.9259 8.49471ZM24.8412 11.0096C25.2186 10.8559 25.5975 10.909 25.6879 11.1302C25.7783 11.3514 25.5444 11.6545 25.167 11.8096C24.7896 11.9633 24.4107 11.9101 24.3203 11.6889C24.2299 11.4677 24.4638 11.1647 24.8412 11.0096ZM24.7537 13.5072C25.1311 13.3535 25.51 13.4067 25.6004 13.6279C25.6908 13.849 25.4569 14.1521 25.0795 14.3072C24.7021 14.4609 24.3232 14.4077 24.2328 14.1866C24.1424 13.9654 24.3763 13.6623 24.7537 13.5072ZM23.0662 5.18703C23.4436 5.03335 23.8224 5.08649 23.9128 5.30767C24.0032 5.52886 23.7693 5.83191 23.3919 5.98702C23.0145 6.1407 22.6357 6.08756 22.5452 5.86638C22.4548 5.64519 22.6887 5.34214 23.0662 5.18703ZM22.9743 7.72632C23.3517 7.57264 23.7306 7.62578 23.821 7.84696C23.9114 8.06815 23.6775 8.37119 23.3001 8.52631C22.9227 8.67999 22.5438 8.62685 22.4534 8.40566C22.363 8.18448 22.5969 7.88143 22.9743 7.72632ZM22.8853 10.2326C23.2627 10.0789 23.6416 10.132 23.732 10.3532C23.8224 10.5744 23.5885 10.8774 23.2111 11.0326C22.8337 11.1862 22.4548 11.1331 22.3644 10.9119C22.274 10.6907 22.5079 10.3877 22.8853 10.2326ZM22.7964 12.7575C23.1738 12.6038 23.5526 12.657 23.643 12.8781C23.7334 13.0993 23.4995 13.4024 23.1221 13.5575C22.7447 13.7112 22.3659 13.658 22.2755 13.4368C22.1851 13.2157 22.419 12.9126 22.7964 12.7575ZM21.0227 6.945C21.4001 6.79132 21.779 6.84446 21.8694 7.06564C21.9598 7.28683 21.7259 7.58987 21.3485 7.74499C20.9711 7.89867 20.5922 7.84553 20.5018 7.62434C20.4114 7.40316 20.6453 7.10011 21.0227 6.945ZM20.9337 9.46418C21.3111 9.3105 21.69 9.36364 21.7804 9.58482C21.8708 9.80601 21.6369 10.1091 21.2595 10.2642C20.8821 10.4178 20.5032 10.3647 20.4128 10.1435C20.3224 9.92234 20.5563 9.61929 20.9337 9.46418ZM20.8419 11.9805C21.2193 11.8268 21.5981 11.8799 21.6886 12.1011C21.779 12.3223 21.5451 12.6254 21.1676 12.7805C20.7902 12.9356 20.4114 12.881 20.321 12.6598C20.2306 12.4387 20.4645 12.1356 20.8419 11.9805ZM18.9793 8.69579C19.3567 8.54211 19.7355 8.59525 19.8259 8.81643C19.9163 9.03761 19.6824 9.34066 19.305 9.49578C18.9276 9.64946 18.5488 9.59631 18.4584 9.37513C18.368 9.15395 18.6019 8.8509 18.9793 8.69579ZM18.8903 11.2121C19.2677 11.0584 19.6466 11.1116 19.737 11.3327C19.8274 11.5539 19.5935 11.857 19.2161 12.0121C18.8386 12.1672 18.4598 12.1126 18.3694 11.8914C18.279 11.6703 18.5129 11.3672 18.8903 11.2121ZM15.1607 18.6892C14.7216 18.5628 14.8924 18.1808 14.8924 18.1808C14.8924 18.1808 15.5999 15.1675 15.7319 14.6821C15.8639 14.1966 16.5025 14.3 16.5025 14.3C16.1021 14.3762 16.0777 14.6016 16.0777 14.6016C16.0777 14.6016 15.2842 17.9869 15.1938 18.3876C15.1507 18.5801 15.1507 18.6576 15.1607 18.6892C15.1737 18.6935 15.1851 18.6978 15.1981 18.7007C15.1981 18.7007 15.1722 18.7237 15.1607 18.6892ZM15.95 18.5513L16.6087 15.5467C16.6087 15.5467 16.7149 15.0081 17.1511 15.4691C17.1511 15.4691 18.7009 16.8264 21.6168 16.3783C21.6168 16.3783 21.7273 16.6325 21.225 16.812C20.7228 16.9916 15.9486 18.5513 15.9486 18.5513H15.95Z" fill="url(#paint3_linear_72_382)"/>
<path d="M3.15987 32.3982L4.59199 33.6262C4.59199 33.6262 4.17297 34.1691 4.1988 34.4075C4.2232 34.6473 4.03378 35.1371 3.71091 35.5148C1.57706 34.0326 0 32.3321 0 32.3321C0.322875 31.9558 0.777769 31.6915 1.01885 31.68C1.25849 31.6686 1.73061 31.1716 1.73061 31.1716L3.16274 32.3996L3.15987 32.3982ZM5.45443 26.8198L4.33513 28.1282C4.58338 28.9943 5.08276 30.9045 6.00116 31.9817L7.33141 30.4291C7.33141 30.4291 5.48169 29.1537 5.45586 26.8198H5.45443ZM4.12418 28.3724L2.08362 30.7551C1.97312 30.8844 1.99465 31.0826 2.12954 31.2003L4.50015 33.2341C4.63648 33.3504 4.83594 33.3403 4.94644 33.2125L5.99973 31.9831C5.99973 31.9831 4.15001 30.7077 4.12418 28.3752V28.3724ZM6.84494 25.9178C6.67418 25.8546 6.5192 25.7943 6.38 25.7383L5.66537 26.5742C5.91363 27.4402 6.41301 29.3504 7.33141 30.4276L8.66165 28.875C8.66165 28.875 7.16064 27.8338 6.84638 25.9178H6.84494ZM9.57 26.7293C9.69915 26.9433 9.83835 27.1444 9.98902 27.3225L10.3435 26.9074C10.0737 26.8485 9.81539 26.7896 9.57 26.7293ZM9.2787 26.6575C8.49232 26.4593 7.83939 26.2625 7.30414 26.0801C7.59401 26.9979 8.02738 28.1339 8.65878 28.875L9.98902 27.3225C9.98902 27.3225 9.66041 27.0941 9.2787 26.6575Z" fill="url(#paint4_linear_72_382)"/>
<defs>
<linearGradient id="paint0_linear_72_382" x1="26.084" y1="31.0725" x2="3.35513" y2="19.1952" gradientUnits="userSpaceOnUse">
<stop stop-color="#12EF97"/>
<stop offset="0.06" stop-color="#14EEA7"/>
<stop offset="0.24" stop-color="#1BEDD6"/>
<stop offset="0.38" stop-color="#1FECF3"/>
<stop offset="0.46" stop-color="#21ECFE"/>
<stop offset="1" stop-color="#007AEE"/>
</linearGradient>
<linearGradient id="paint1_linear_72_382" x1="27.918" y1="26.6044" x2="8.18365" y2="16.2904" gradientUnits="userSpaceOnUse">
<stop stop-color="#12EF97"/>
<stop offset="0.06" stop-color="#14EEA7"/>
<stop offset="0.24" stop-color="#1BEDD6"/>
<stop offset="0.38" stop-color="#1FECF3"/>
<stop offset="0.46" stop-color="#21ECFE"/>
<stop offset="1" stop-color="#007AEE"/>
</linearGradient>
<linearGradient id="paint2_linear_72_382" x1="9.31312" y1="6.21975" x2="15.9673" y2="11.4062" gradientUnits="userSpaceOnUse">
<stop stop-color="#12EF97"/>
<stop offset="0.06" stop-color="#14EEA7"/>
<stop offset="0.24" stop-color="#1BEDD6"/>
<stop offset="0.38" stop-color="#1FECF3"/>
<stop offset="0.46" stop-color="#21ECFE"/>
<stop offset="1" stop-color="#007AEE"/>
</linearGradient>
<linearGradient id="paint3_linear_72_382" x1="13.1848" y1="18.8271" x2="37.5489" y2="2.05718" gradientUnits="userSpaceOnUse">
<stop stop-color="#12EF97"/>
<stop offset="0.06" stop-color="#14EEA7"/>
<stop offset="0.24" stop-color="#1BEDD6"/>
<stop offset="0.38" stop-color="#1FECF3"/>
<stop offset="0.46" stop-color="#21ECFE"/>
<stop offset="1" stop-color="#007AEE"/>
</linearGradient>
<linearGradient id="paint4_linear_72_382" x1="8.71618" y1="26.1893" x2="1.84015" y2="33.9261" gradientUnits="userSpaceOnUse">
<stop stop-color="#12EF97"/>
<stop offset="0.06" stop-color="#14EEA7"/>
<stop offset="0.24" stop-color="#1BEDD6"/>
<stop offset="0.38" stop-color="#1FECF3"/>
<stop offset="0.46" stop-color="#21ECFE"/>
<stop offset="1" stop-color="#007AEE"/>
</linearGradient>
</defs>
</svg>
