<svg width="162" height="172" viewBox="0 0 162 172" fill="none" xmlns="http://www.w3.org/2000/svg">
<path d="M4.11152 155.839H0L1.10012 151.43H13.095L11.9949 155.839H7.90365L4.10138 171.097H0.314321L4.11659 155.839H4.11152Z" fill="#F9F9F9"/>
<path d="M27.2546 151.43L22.3573 171.097H18.5703L20.4815 163.425H15.3155L13.4042 171.097H9.61719L14.5145 151.43H18.3016L16.4613 158.818H21.6273L23.4676 151.43H27.2546Z" fill="#F9F9F9"/>
<path d="M36.8668 166.799L35.7971 171.097H25.0443L29.9416 151.43H40.446L39.3763 155.727H32.6235L31.7971 159.041H37.7489L36.7147 163.202H30.7629L29.8656 166.799H36.8668Z" fill="#F9F9F9"/>
<path d="M124.207 153.667L122.479 163.268H131.264L129.789 171.437H112.481L120.04 129.504H136.796L135.335 137.603H127.097L125.622 145.777H133.526L132.101 153.662H124.197L124.207 153.667ZM114.839 139.374L111.3 159.005C110.585 162.978 109.338 166.043 107.559 168.2C105.779 170.361 103.153 171.442 99.6803 171.442H88.4459L95.0415 134.863C95.6955 135.238 96.9984 135.253 97.7792 135.045C98.712 134.797 100.015 132.929 100.015 132.929L102.19 129.509H107.523C110.54 129.509 112.659 130.347 113.881 132.021C115.102 133.696 115.422 136.146 114.839 139.374ZM106.195 137.456C105.896 137.05 105.176 136.847 104.03 136.847H103.102L98.1999 164.034H99.6549C101.191 164.034 102.099 163.288 102.367 161.796L106.266 140.16C106.519 138.76 106.494 137.861 106.195 137.456ZM62.7527 153.287C61.3027 154.322 59.4219 154.834 57.105 154.834H53.7033L50.7071 171.442H42.4688L50.0277 129.509H61.0949C63.4117 129.509 65.1557 130.027 66.3268 131.057C67.4979 132.087 68.2076 133.559 68.451 135.466C68.6943 137.374 68.5777 139.648 68.1012 142.281C67.6398 144.823 66.996 147.035 66.1646 148.918C65.3331 150.8 64.1924 152.257 62.7476 153.287H62.7527ZM59.9998 138.455C59.8122 137.587 59.0873 137.156 57.8198 137.156H56.8921L55.0619 147.304H55.5385C57.0949 147.304 58.124 146.868 58.631 145.995C59.138 145.123 59.5435 143.834 59.8477 142.134C60.1367 140.546 60.1823 139.318 59.9998 138.455ZM142.215 164.298L148.486 129.509H140.106L132.547 171.442H149.541L150.828 164.298H142.21H142.215ZM89.4547 129.509L85.8705 171.442H77.9465L78.5701 164.673H73.5207L71.7767 171.442H63.6348L75.2444 129.509H89.4547ZM81.1455 136.659H80.7653L75.3255 157.985H79.1328L81.1455 136.659Z" fill="url(#paint0_linear_6_501)"/>
<path d="M53.7793 46.5674C53.7793 46.5674 26.8846 58.2784 33.7287 79.4781C40.5728 100.678 121.744 84.1158 96.9782 133.243C95.4015 136.374 104.851 121.614 106.251 117.032C106.266 116.991 114.641 97.75 89.5207 91.9452C66.5043 86.6275 65.6221 88.6724 50.9352 83.0807C50.408 82.8777 51.1989 82.1674 51.716 82.3805C55.6399 83.989 63.3712 86.5108 75.3407 87.7235C93.3534 89.5451 113.15 92.072 109.632 114.266C109.632 114.266 132.643 88.2056 90.6968 85.2473C48.7502 82.2891 35.1127 70.7506 53.7793 46.5674Z" fill="url(#paint1_linear_6_501)"/>
<path d="M57.2774 47.0344C57.2774 47.0344 39.356 61.9167 55.9897 74.9268C71.9998 87.4497 109.982 76.5911 118.291 95.9539C118.291 95.9539 120.081 83.2179 100.147 80.7468C80.2127 78.2808 42.9809 75.0891 57.2774 47.0293V47.0344Z" fill="url(#paint2_linear_6_501)"/>
<path d="M65.3636 29.0873C65.2115 29.473 64.9681 29.8129 64.7907 30.1884C64.1012 31.6498 62.0581 33.106 62.0581 33.106C59.067 35.4706 52.2584 33.5323 51.3864 29.5948C50.5144 25.6572 55.9187 17.9243 63.2039 16.7725C70.4839 15.6206 75.4725 20.2076 75.4725 20.2076C69.8654 18.6195 66.0733 27.3114 65.3636 29.0873ZM78.342 39.6161C78.342 39.6161 75.3407 42.4931 70.1696 42.0365C65.0036 41.5798 62.3876 40.3164 59.3306 44.7461C59.3306 44.7461 70.9504 50.5762 78.342 39.6161ZM57.8097 43.9646C60.0607 39.2508 66.0074 39.1442 68.7653 39.9104C71.5182 40.6766 77.3585 40.3519 79.7007 36.9421C82.0429 33.5323 80.6588 22.9883 76.2685 20.9535C71.8781 18.9239 68.1671 26.3879 66.6563 30.1478C65.1506 33.9078 62.1646 34.9277 62.1646 34.9277C54.9758 37.3937 51.0163 31.868 51.0163 31.868C51.5284 40.9811 57.8046 43.9596 57.8046 43.9596L57.8097 43.9646Z" fill="url(#paint3_linear_6_501)"/>
<path d="M161.967 20.5172C158.18 54.4681 93.5409 64.7077 93.5409 64.7077C168.689 45.8472 161.059 16.5848 161.059 16.5848L161.206 15.8592C153.901 -9.89193 97.1708 -1.55516 81.693 21.39C83.4522 24.1351 84.5169 27.3774 84.6233 30.8786C84.9174 40.4433 77.977 48.5466 68.7451 49.9268C68.2026 55.8635 69.8655 58.0961 62.195 67.9906C62.195 67.9906 70.2001 72.9988 82.3775 75.2365C82.3775 75.2365 90.8286 69.3556 104.309 67.1991C117.789 65.0426 163.513 51.9818 161.961 20.5172H161.967ZM144.228 16.874C145.561 16.3311 146.899 16.5188 147.219 17.3002C147.538 18.0817 146.712 19.1523 145.379 19.7003C144.045 20.2432 142.707 20.0555 142.387 19.2741C142.068 18.4927 142.894 17.422 144.228 16.874ZM144 25.7486C145.333 25.2057 146.671 25.3935 146.991 26.1749C147.31 26.9563 146.484 28.0269 145.15 28.5749C143.817 29.1178 142.479 28.9301 142.159 28.1487C141.84 27.3673 142.666 26.2966 144 25.7486ZM137.318 14.2253C138.651 13.6824 139.989 13.8701 140.309 14.6516C140.628 15.433 139.802 16.5036 138.469 17.0516C137.135 17.5945 135.797 17.4068 135.477 16.6254C135.158 15.844 135.984 14.7733 137.318 14.2253ZM137.003 23.0035C138.337 22.4606 139.675 22.6484 139.995 23.4298C140.314 24.2112 139.488 25.2818 138.154 25.8298C136.821 26.3728 135.482 26.185 135.163 25.4036C134.844 24.6222 135.67 23.5515 137.003 23.0035ZM136.775 31.8832C138.109 31.3403 139.447 31.5281 139.766 32.3095C140.086 33.0909 139.259 34.1615 137.926 34.7095C136.593 35.2524 135.254 35.0647 134.935 34.2833C134.616 33.5019 135.442 32.4312 136.775 31.8832ZM130.408 11.4802C131.741 10.9373 133.079 11.125 133.399 11.9065C133.718 12.6879 132.892 13.7585 131.559 14.3065C130.225 14.8545 128.887 14.6617 128.567 13.8803C128.248 13.0989 129.074 12.0282 130.408 11.4802ZM130.088 20.3599C131.422 19.817 132.76 20.0047 133.079 20.7862C133.399 21.5676 132.572 22.6382 131.239 23.1862C129.906 23.7291 128.567 23.5414 128.248 22.76C127.929 21.9786 128.755 20.9079 130.088 20.3599ZM129.784 29.2193C131.117 28.6764 132.456 28.8641 132.775 29.6456C133.095 30.427 132.268 31.4976 130.935 32.0456C129.602 32.5885 128.263 32.4008 127.944 31.6194C127.624 30.838 128.451 29.7673 129.784 29.2193ZM129.556 38.094C130.889 37.551 132.228 37.7388 132.547 38.5202C132.867 39.3016 132.04 40.3722 130.707 40.9202C129.374 41.4632 128.035 41.2754 127.716 40.494C127.396 39.7126 128.223 38.642 129.556 38.094ZM123.513 8.76558C124.846 8.22265 126.185 8.4104 126.504 9.19181C126.823 9.97322 125.997 11.0439 124.664 11.5919C123.33 12.1399 121.992 11.9471 121.673 11.1656C121.353 10.3842 122.18 9.31359 123.513 8.76558ZM123.183 17.6098C124.517 17.0668 125.855 17.2546 126.175 18.036C126.494 18.8174 125.668 19.888 124.334 20.436C123.001 20.979 121.663 20.7912 121.343 20.0098C121.024 19.2284 121.85 18.1578 123.183 17.6098ZM122.869 26.5706C124.202 26.0277 125.541 26.2155 125.86 26.9969C126.18 27.7783 125.353 28.8489 124.02 29.3969C122.687 29.9399 121.348 29.7521 121.029 28.9707C120.709 28.1893 121.536 27.1186 122.869 26.5706ZM122.565 35.4047C123.898 34.8617 125.237 35.0495 125.556 35.8309C125.875 36.6123 125.049 37.6829 123.716 38.2309C122.382 38.7739 121.044 38.5861 120.725 37.8047C120.405 37.0233 121.232 35.9527 122.565 35.4047ZM122.337 44.2793C123.67 43.7364 125.009 43.9241 125.328 44.7055C125.647 45.4869 124.821 46.5576 123.488 47.1056C122.154 47.6485 120.816 47.4608 120.496 46.6793C120.177 45.8979 121.003 44.8273 122.337 44.2793ZM116.289 14.8951C117.622 14.3522 118.96 14.5399 119.28 15.3213C119.599 16.1028 118.773 17.1734 117.439 17.7214C116.106 18.2643 114.768 18.0766 114.448 17.2952C114.129 16.5138 114.955 15.4431 116.289 14.8951ZM115.964 23.8256C117.298 23.2826 118.636 23.4704 118.955 24.2518C119.275 25.0332 118.448 26.1038 117.115 26.6518C115.782 27.1948 114.443 27.007 114.124 26.2256C113.804 25.4442 114.631 24.3736 115.964 23.8256ZM115.65 32.756C116.983 32.2131 118.322 32.4008 118.641 33.1822C118.96 33.9636 118.134 35.0343 116.801 35.5823C115.467 36.1252 114.129 35.9375 113.81 35.156C113.49 34.3746 114.317 33.304 115.65 32.756ZM115.356 41.5443C116.689 41.0014 118.028 41.1892 118.347 41.9706C118.666 42.752 117.84 43.8226 116.507 44.3706C115.173 44.9186 113.835 44.7258 113.516 43.9444C113.196 43.163 114.022 42.0924 115.356 41.5443ZM109.399 12.1906C110.732 11.6477 112.071 11.8354 112.39 12.6168C112.709 13.3982 111.883 14.4689 110.55 15.0169C109.216 15.5598 107.878 15.3721 107.559 14.5907C107.239 13.8093 108.066 12.7386 109.399 12.1906ZM109.069 21.1109C110.403 20.568 111.741 20.7557 112.061 21.5371C112.38 22.3185 111.554 23.3892 110.22 23.9372C108.887 24.4852 107.548 24.2924 107.229 23.511C106.91 22.7295 107.736 21.6589 109.069 21.1109ZM108.745 30.0109C110.078 29.468 111.417 29.6557 111.736 30.4371C112.055 31.2185 111.229 32.2892 109.896 32.8372C108.562 33.3801 107.224 33.1924 106.905 32.4109C106.585 31.6295 107.412 30.5589 108.745 30.0109ZM108.446 38.8957C109.779 38.3527 111.118 38.5405 111.437 39.3219C111.756 40.1033 110.93 41.1739 109.597 41.7219C108.263 42.2649 106.925 42.0771 106.606 41.2957C106.286 40.5143 107.112 39.4437 108.446 38.8957ZM108.137 47.7195C109.47 47.1766 110.808 47.3644 111.128 48.1458C111.447 48.9272 110.621 49.9978 109.287 50.5458C107.954 51.0888 106.616 50.901 106.296 50.1196C105.977 49.3382 106.803 48.2675 108.137 47.7195ZM102.175 18.3252C103.508 17.7823 104.846 17.97 105.166 18.7514C105.485 19.5329 104.659 20.6035 103.325 21.1515C101.992 21.6944 100.654 21.5067 100.334 20.7253C100.015 19.9439 100.841 18.8732 102.175 18.3252ZM101.85 27.2962C103.183 26.7533 104.522 26.9411 104.841 27.7225C105.161 28.5039 104.334 29.5745 103.001 30.1225C101.668 30.6655 100.329 30.4777 100.01 29.6963C99.6905 28.9149 100.517 27.8442 101.85 27.2962ZM101.536 36.1506C102.869 35.6076 104.208 35.7954 104.527 36.5768C104.846 37.3582 104.02 38.4288 102.687 38.9768C101.353 39.5198 100.015 39.332 99.6955 38.5506C99.3761 37.7692 100.202 36.6986 101.536 36.1506ZM101.222 45.0709C102.555 44.5279 103.893 44.7157 104.213 45.4971C104.532 46.2785 103.706 47.3491 102.372 47.8971C101.039 48.4401 99.7006 48.2523 99.3812 47.4709C99.0618 46.6895 99.8882 45.6189 101.222 45.0709ZM94.9554 24.5359C96.2887 23.993 97.6271 24.1807 97.9465 24.9622C98.2659 25.7436 97.4395 26.8142 96.1062 27.3622C94.7729 27.9051 93.4345 27.7174 93.1151 26.936C92.7957 26.1546 93.622 25.0839 94.9554 24.5359ZM94.641 33.4359C95.9744 32.893 97.3128 33.0807 97.6322 33.8621C97.9515 34.6436 97.1252 35.7142 95.7919 36.2622C94.4585 36.8051 93.1201 36.6174 92.8007 35.836C92.4814 35.0546 93.3077 33.9839 94.641 33.4359ZM94.3166 42.3258C95.6499 41.7828 96.9883 41.9706 97.3077 42.752C97.6271 43.5334 96.8007 44.604 95.4674 45.152C94.1341 45.7 92.7957 45.5072 92.4763 44.7258C92.1569 43.9444 92.9832 42.8738 94.3166 42.3258ZM87.7361 30.7213C89.0694 30.1783 90.4079 30.3661 90.7272 31.1475C91.0466 31.9289 90.2203 32.9995 88.8869 33.5475C87.5536 34.0905 86.2152 33.9027 85.8958 33.1213C85.5764 32.3399 86.4028 31.2693 87.7361 30.7213ZM87.4218 39.6111C88.7551 39.0682 90.0935 39.2559 90.4129 40.0373C90.7323 40.8188 89.906 41.8894 88.5726 42.4374C87.2393 42.9854 85.9009 42.7926 85.5815 42.0112C85.2621 41.2298 86.0885 40.1591 87.4218 39.6111ZM74.2457 66.0269C72.6943 65.5804 73.2976 64.2307 73.2976 64.2307C73.2976 64.2307 75.797 53.5852 76.2634 51.8702C76.7298 50.1551 78.9858 50.5205 78.9858 50.5205C77.5714 50.7894 77.4852 51.586 77.4852 51.586C77.4852 51.586 74.6817 63.5457 74.3623 64.9614C74.2102 65.6413 74.2102 65.9153 74.2457 66.0269C74.2913 66.0422 74.3319 66.0574 74.3775 66.0675C74.3775 66.0675 74.2862 66.1487 74.2457 66.0269ZM77.034 65.5398L79.361 54.9248C79.361 54.9248 79.7361 53.022 81.2773 54.6508C81.2773 54.6508 86.7526 59.4458 97.0542 57.8627C97.0542 57.8627 97.4446 58.7608 95.6702 59.3951C93.8958 60.0293 77.0289 65.5398 77.0289 65.5398H77.034Z" fill="url(#paint4_linear_6_501)"/>
<path d="M31.8478 114.459L36.9074 118.798C36.9074 118.798 35.427 120.716 35.5183 121.558C35.6045 122.405 34.9353 124.136 33.7946 125.47C26.256 120.234 20.6844 114.226 20.6844 114.226C21.825 112.896 23.4321 111.963 24.2838 111.922C25.1305 111.882 26.7984 110.126 26.7984 110.126L31.858 114.464L31.8478 114.459ZM39.9543 94.7515L35.9999 99.374C36.877 102.434 38.6412 109.182 41.8858 112.988L46.5854 107.503C46.5854 107.503 40.0506 102.997 39.9593 94.7515H39.9543ZM35.2547 100.237L28.0455 108.655C27.6552 109.111 27.7312 109.811 28.2078 110.228L36.5829 117.412C37.0645 117.823 37.7692 117.788 38.1596 117.336L41.8807 112.993C41.8807 112.993 35.3459 108.487 35.2547 100.247V100.237ZM44.8668 91.5649C44.2635 91.3417 43.716 91.1286 43.2242 90.9307L40.6995 93.8838C41.5766 96.9435 43.3408 103.692 46.5854 107.498L51.285 102.013C51.285 102.013 45.9821 98.3338 44.8719 91.5649H44.8668ZM54.4941 94.4318C54.9504 95.1878 55.4422 95.8982 55.9745 96.5274L57.2267 95.061C56.2736 94.853 55.3611 94.6449 54.4941 94.4318ZM53.465 94.1781C50.6868 93.4779 48.3801 92.7827 46.4891 92.1383C47.5132 95.3807 49.0442 99.3943 51.2749 102.013L55.9745 96.5274C55.9745 96.5274 54.8135 95.7206 53.465 94.1781Z" fill="url(#paint5_linear_6_501)"/>
<defs>
<linearGradient id="paint0_linear_6_501" x1="145.86" y1="176.851" x2="49.8093" y2="126.65" gradientUnits="userSpaceOnUse">
<stop stop-color="#12EF97"/>
<stop offset="0.06" stop-color="#14EEA7"/>
<stop offset="0.24" stop-color="#1BEDD6"/>
<stop offset="0.38" stop-color="#1FECF3"/>
<stop offset="0.46" stop-color="#21ECFE"/>
<stop offset="1" stop-color="#007AEE"/>
</linearGradient>
<linearGradient id="paint1_linear_6_501" x1="112.836" y1="109.776" x2="32.5377" y2="67.8143" gradientUnits="userSpaceOnUse">
<stop stop-color="#12EF97"/>
<stop offset="0.06" stop-color="#14EEA7"/>
<stop offset="0.24" stop-color="#1BEDD6"/>
<stop offset="0.38" stop-color="#1FECF3"/>
<stop offset="0.46" stop-color="#21ECFE"/>
<stop offset="1" stop-color="#007AEE"/>
</linearGradient>
<linearGradient id="paint2_linear_6_501" x1="119.315" y1="93.9902" x2="49.5961" y2="57.5522" gradientUnits="userSpaceOnUse">
<stop stop-color="#12EF97"/>
<stop offset="0.06" stop-color="#14EEA7"/>
<stop offset="0.24" stop-color="#1BEDD6"/>
<stop offset="0.38" stop-color="#1FECF3"/>
<stop offset="0.46" stop-color="#21ECFE"/>
<stop offset="1" stop-color="#007AEE"/>
</linearGradient>
<linearGradient id="paint3_linear_6_501" x1="53.5867" y1="21.9734" x2="77.0951" y2="40.2965" gradientUnits="userSpaceOnUse">
<stop stop-color="#12EF97"/>
<stop offset="0.06" stop-color="#14EEA7"/>
<stop offset="0.24" stop-color="#1BEDD6"/>
<stop offset="0.38" stop-color="#1FECF3"/>
<stop offset="0.46" stop-color="#21ECFE"/>
<stop offset="1" stop-color="#007AEE"/>
</linearGradient>
<linearGradient id="paint4_linear_6_501" x1="67.2647" y1="66.5141" x2="153.341" y2="7.26778" gradientUnits="userSpaceOnUse">
<stop stop-color="#12EF97"/>
<stop offset="0.06" stop-color="#14EEA7"/>
<stop offset="0.24" stop-color="#1BEDD6"/>
<stop offset="0.38" stop-color="#1FECF3"/>
<stop offset="0.46" stop-color="#21ECFE"/>
<stop offset="1" stop-color="#007AEE"/>
</linearGradient>
<linearGradient id="paint5_linear_6_501" x1="51.4777" y1="92.5239" x2="27.1854" y2="119.857" gradientUnits="userSpaceOnUse">
<stop stop-color="#12EF97"/>
<stop offset="0.06" stop-color="#14EEA7"/>
<stop offset="0.24" stop-color="#1BEDD6"/>
<stop offset="0.38" stop-color="#1FECF3"/>
<stop offset="0.46" stop-color="#21ECFE"/>
<stop offset="1" stop-color="#007AEE"/>
</linearGradient>
</defs>
</svg>
