<svg width="3593" height="2268" viewBox="0 0 3593 2268" fill="none" xmlns="http://www.w3.org/2000/svg">
<rect x="1146.75" y="1190" width="38" height="1104.16" transform="rotate(-24.1912 1146.75 1190)" fill="white"/>
<rect x="2375.75" y="597.408" width="38" height="1831.35" transform="rotate(-24.1912 2375.75 597.408)" fill="white"/>
<rect x="17.0049" y="1767.82" width="38" height="3973.54" transform="rotate(-115.86 17.0049 1767.82)" fill="white"/>
<path d="M1932.64 560.708C1931.22 557.814 1930.54 554.635 1929.3 551.669C1924.51 540.111 1926.82 520.861 1926.82 520.861C1928.86 491.429 1975.38 462.522 2002.47 478.049C2029.41 493.491 2045.66 564.77 2014.36 612.445C1983.08 660.15 1930.81 664.794 1930.81 664.794C1969.09 640.95 1939.02 574 1932.58 560.711L1932.64 560.708ZM1804.79 580.165C1804.79 580.165 1803.92 547.971 1833.44 520.8C1862.96 493.628 1883.79 485.197 1874.35 444.615C1874.35 444.615 1780.48 480.802 1804.79 580.165ZM1886.69 440.013C1901.96 477.451 1871.61 512.019 1852.89 523.843C1834.19 535.635 1805.64 570.71 1813.01 601.912C1820.34 633.084 1887.93 680.062 1922.42 665.5C1956.92 650.938 1933.44 590.817 1919.76 562.624C1906.09 534.432 1915.73 512.03 1915.73 512.03C1939.03 457.968 1991.29 464.08 1991.29 464.08C1936.43 419.558 1886.69 440.013 1886.69 440.013Z" fill="white"/>
<path d="M1635.94 1260.67C1637.53 1261.37 1638.91 1262.44 1640.44 1263.23C1646.41 1266.32 1652.13 1275.04 1652.13 1275.04C1661.47 1287.84 1652.35 1315.83 1635.84 1318.82C1619.43 1321.8 1588.07 1298.12 1584.44 1267.69C1580.79 1237.25 1600.67 1217.25 1600.67 1217.25C1593.18 1240.3 1628.72 1257.42 1635.97 1260.65L1635.94 1260.67ZM1681.76 1208.43C1681.76 1208.43 1693.26 1221.36 1690.53 1242.75C1687.8 1264.13 1682.16 1274.81 1700.08 1288.22C1700.08 1288.22 1726.15 1240.86 1681.76 1208.43ZM1696.6 1294.38C1677.37 1284.28 1677.88 1259.57 1681.48 1248.22C1685.09 1236.91 1684.69 1212.61 1670.86 1202.33C1657.05 1192.06 1613.01 1196.13 1603.87 1214.06C1594.73 1231.98 1625.19 1248.57 1640.57 1255.43C1655.95 1262.28 1659.74 1274.83 1659.74 1274.83C1668.87 1305.12 1645.27 1320.69 1645.27 1320.69C1683.24 1320.01 1696.6 1294.38 1696.6 1294.38Z" fill="white"/>
</svg>
