<svg width="470" height="496" viewBox="0 0 470 496" fill="none" xmlns="http://www.w3.org/2000/svg">
<g filter="url(#filter0_d_1_1088)">
<path d="M25.8121 434.49H14.6345L17.6409 422.478H50.2872L47.2808 434.49H36.1417L25.8121 476.049H15.4824L25.8121 434.49Z" fill="white"/>
<path d="M88.7921 422.478L75.4561 476.049H65.165L70.3683 455.154H56.3L51.0966 476.049H40.8055L54.1415 422.478H64.4326L59.422 442.601H73.4904L78.501 422.478H88.7921Z" fill="white"/>
<path d="M114.925 464.346L111.995 476.049H82.7408L96.0769 422.478H124.638L121.708 434.181H103.323L101.088 443.219H117.276L114.462 454.536H98.2739L95.8456 464.346H114.886H114.925Z" fill="white"/>
<path d="M374.053 428.581L377.946 407.106H356.438L360.447 384.859H382.841L386.811 362.766H341.214L320.67 477.015H367.732L371.74 454.729H347.843L352.545 428.581H374.053Z" fill="white"/>
<path d="M324.447 369.641C321.132 365.083 315.351 362.804 307.141 362.804H292.61L286.674 372.113C286.674 372.113 283.128 377.211 280.585 377.868C278.465 378.447 274.919 378.408 273.146 377.366L255.184 477.015H285.749C295.193 477.015 302.362 474.079 307.18 468.17C312.036 462.299 315.428 453.918 317.355 443.103L326.991 389.648C328.571 380.88 327.723 374.198 324.37 369.641H324.447ZM303.749 391.772L293.15 450.712C292.417 454.768 289.951 456.815 285.749 456.815H281.779L295.116 382.773H297.659C300.781 382.773 302.747 383.314 303.557 384.434C304.366 385.554 304.443 387.987 303.749 391.811V391.772Z" fill="white"/>
<path d="M194.671 415.642C196.945 410.505 198.68 404.479 199.952 397.566C201.262 390.382 201.57 384.202 200.915 378.988C200.26 373.812 198.333 369.795 195.134 366.976C191.935 364.156 187.194 362.766 180.911 362.766H150.809L130.226 476.976H152.62L160.753 431.748H170.003C176.324 431.748 181.412 430.357 185.382 427.538C189.314 424.718 192.436 420.74 194.671 415.642ZM177.481 397.18C176.633 401.814 175.554 405.329 174.166 407.685C172.778 410.08 169.965 411.239 165.764 411.239H164.453L169.425 383.584H171.969C175.438 383.584 177.404 384.743 177.905 387.137C178.406 389.493 178.29 392.854 177.481 397.18Z" fill="white"/>
<path d="M401.534 457.549L418.609 362.766H395.83L375.247 477.015H421.5L425.007 457.549H401.534Z" fill="white"/>
<path d="M219.339 362.766L187.772 476.976H209.934L214.675 458.553H228.397L226.701 476.976H248.247L257.998 362.766H219.339ZM229.939 440.322H219.57L234.371 382.232H235.412L229.939 440.322Z" fill="white"/>
<path d="M160.946 136.855C160.946 136.855 87.79 168.759 106.407 226.501C125.023 284.244 345.877 239.131 278.465 372.962C274.186 381.498 299.895 341.291 303.672 328.815C303.711 328.7 326.49 276.287 258.152 260.49C195.558 246.006 193.129 251.568 153.16 236.35C151.734 235.809 153.892 233.878 155.28 234.458C165.956 238.822 187.001 245.697 219.57 249.019C268.559 253.963 322.443 260.876 312.884 321.322C312.884 321.322 375.479 250.332 261.351 242.26C147.224 234.187 110.145 202.786 160.907 136.894L160.946 136.855Z" fill="white"/>
<path d="M170.466 138.13C170.466 138.13 121.708 178.685 166.958 214.103C210.513 248.208 313.848 218.66 336.434 271.382C336.434 271.382 341.291 236.698 287.06 229.977C232.829 223.257 131.537 214.566 170.427 138.13H170.466Z" fill="white"/>
<path d="M192.474 89.2323C192.05 90.2751 191.395 91.2021 190.932 92.2449C189.044 96.2232 183.494 100.201 183.494 100.201C175.361 106.652 156.821 101.36 154.47 90.6227C152.119 79.8853 166.804 58.8354 186.616 55.7068C206.427 52.5783 219.994 65.0538 219.994 65.0538C204.731 60.7279 194.44 84.4043 192.513 89.2323H192.474ZM227.78 117.93C227.78 117.93 219.609 125.77 205.54 124.534C191.472 123.298 184.38 119.861 176.055 131.912C176.055 131.912 207.66 147.786 227.78 117.93ZM171.93 129.749C178.059 116.926 194.247 116.617 201.725 118.702C209.202 120.788 225.082 119.9 231.48 110.63C237.878 101.321 234.101 72.624 222.153 67.1008C210.204 61.5776 200.106 81.8937 196.02 92.129C191.935 102.364 183.802 105.145 183.802 105.145C164.222 111.866 153.468 96.8025 153.468 96.8025C154.856 121.638 171.93 129.749 171.93 129.749Z" fill="white"/>
<path d="M455.264 65.9035C444.973 158.369 269.099 186.255 269.099 186.255C473.533 134.886 452.797 55.1661 452.797 55.1661L453.182 53.1963C433.294 -16.9445 278.966 5.7663 236.838 68.2595C241.617 75.7526 244.508 84.5588 244.816 94.0988C245.626 120.17 226.739 142.224 201.609 145.971C200.144 162.154 204.654 168.218 183.802 195.177C183.802 195.177 205.579 208.811 238.726 214.914C238.726 214.914 261.737 198.885 298.392 193.014C335.047 187.143 459.465 151.571 455.225 65.8649L455.264 65.9035ZM407.007 55.9772C410.63 54.5095 414.292 55.0116 415.14 57.1359C415.988 59.2602 413.752 62.1956 410.129 63.6633C406.506 65.131 402.845 64.6289 401.997 62.5046C401.149 60.3803 403.384 57.4449 407.007 55.9772ZM406.391 80.1557C410.014 78.688 413.675 79.1901 414.523 81.3144C415.371 83.4387 413.136 86.3741 409.513 87.8418C405.89 89.3095 402.228 88.8074 401.38 86.6831C400.532 84.5588 402.768 81.6234 406.391 80.1557ZM388.198 48.7545C391.821 47.2868 395.483 47.789 396.331 49.9133C397.179 52.0376 394.943 54.973 391.32 56.4407C387.697 57.9084 384.035 57.4063 383.187 55.282C382.339 53.1577 384.575 50.2223 388.198 48.7545ZM387.35 72.6627C390.973 71.195 394.635 71.6971 395.483 73.8214C396.331 75.9457 394.095 78.8811 390.472 80.3488C386.849 81.8165 383.187 81.3144 382.339 79.1901C381.492 77.0658 383.727 74.1304 387.35 72.6627ZM386.733 96.8411C390.357 95.3734 394.018 95.8755 394.866 97.9998C395.714 100.124 393.479 103.06 389.855 104.527C386.232 105.995 382.571 105.493 381.723 103.369C380.875 101.244 383.11 98.3088 386.733 96.8411ZM369.427 41.2615C373.05 39.7938 376.712 40.2959 377.56 42.4203C378.408 44.5446 376.173 47.48 372.549 48.9477C368.926 50.4154 365.265 49.9133 364.417 47.789C363.569 45.6646 365.804 42.7292 369.427 41.2615ZM368.579 65.4786C372.203 64.0109 375.864 64.513 376.712 66.6373C377.56 68.7617 375.325 71.6971 371.701 73.1648C368.078 74.6325 364.417 74.1304 363.569 72.0061C362.721 69.8817 364.956 66.9463 368.579 65.4786ZM367.731 89.6185C371.355 88.1508 375.016 88.6529 375.864 90.7772C376.712 92.9015 374.477 95.8369 370.854 97.3046C367.23 98.7723 363.569 98.2702 362.721 96.1459C361.873 94.0216 364.108 91.0862 367.731 89.6185ZM367.115 113.758C370.738 112.291 374.399 112.793 375.247 114.917C376.095 117.041 373.86 119.977 370.237 121.444C366.614 122.912 362.952 122.41 362.104 120.286C361.256 118.161 363.492 115.226 367.115 113.758ZM350.657 33.8844C354.28 32.4167 357.941 32.9188 358.789 35.0431C359.637 37.1674 357.402 40.1028 353.779 41.5705C350.156 43.0382 346.494 42.5361 345.646 40.4118C344.798 38.2875 347.034 35.3521 350.657 33.8844ZM349.77 57.9856C353.393 56.5179 357.055 57.02 357.903 59.1443C358.751 61.2686 356.515 64.2041 352.892 65.6718C349.269 67.1395 345.608 66.6373 344.76 64.513C343.912 62.3887 346.147 59.4533 349.77 57.9856ZM348.922 82.3958C352.545 80.9281 356.207 81.4303 357.055 83.5546C357.903 85.6789 355.667 88.6143 352.044 90.082C348.421 91.5497 344.76 91.0476 343.912 88.9233C343.064 86.799 345.299 83.8635 348.922 82.3958ZM348.074 106.458C351.697 104.991 355.359 105.493 356.207 107.617C357.055 109.741 354.819 112.677 351.196 114.145C347.573 115.612 343.912 115.11 343.064 112.986C342.216 110.862 344.451 107.926 348.074 106.458ZM347.458 130.637C351.081 129.169 354.742 129.671 355.59 131.796C356.438 133.92 354.203 136.855 350.58 138.323C346.957 139.791 343.295 139.289 342.447 137.164C341.599 135.04 343.835 132.105 347.458 130.637ZM331 50.5699C334.623 49.1022 338.284 49.6043 339.132 51.7286C339.98 53.8529 337.745 56.7883 334.122 58.256C330.498 59.7237 326.837 59.2216 325.989 57.0973C325.141 54.973 327.376 52.0376 331 50.5699ZM330.113 74.9028C333.736 73.4351 337.398 73.9372 338.246 76.0615C339.094 78.1859 336.858 81.1213 333.235 82.589C329.612 84.0567 325.95 83.5546 325.102 81.4303C324.254 79.3059 326.49 76.3705 330.113 74.9028ZM329.265 99.2358C332.888 97.7681 336.55 98.2702 337.398 100.395C338.246 102.519 336.01 105.454 332.387 106.922C328.764 108.39 325.102 107.888 324.254 105.763C323.406 103.639 325.642 100.704 329.265 99.2358ZM328.456 123.183C332.079 121.715 335.74 122.217 336.588 124.341C337.436 126.466 335.201 129.401 331.578 130.869C327.955 132.336 324.293 131.834 323.445 129.71C322.597 127.586 324.833 124.65 328.456 123.183ZM312.267 43.2314C315.89 41.7636 319.552 42.2658 320.4 44.3901C321.248 46.5144 319.012 49.4498 315.389 50.9175C311.766 52.3852 308.105 51.8831 307.257 49.7588C306.409 47.6345 308.644 44.6991 312.267 43.2314ZM311.381 67.5257C315.004 66.058 318.666 66.5601 319.514 68.6844C320.362 70.8087 318.126 73.7441 314.503 75.2118C310.88 76.6795 307.218 76.1774 306.37 74.0531C305.522 71.9288 307.758 68.9934 311.381 67.5257ZM310.494 91.7428C314.117 90.2751 317.779 90.7772 318.627 92.9015C319.475 95.0258 317.239 97.9612 313.616 99.4289C309.993 100.897 306.332 100.395 305.484 98.2702C304.636 96.1459 306.871 93.2105 310.494 91.7428ZM309.685 115.96C313.308 114.492 316.97 114.994 317.818 117.119C318.666 119.243 316.43 122.178 312.807 123.646C309.184 125.114 305.522 124.612 304.674 122.487C303.826 120.363 306.062 117.428 309.685 115.96ZM308.837 139.984C312.46 138.516 316.122 139.018 316.97 141.143C317.818 143.267 315.582 146.202 311.959 147.67C308.336 149.138 304.674 148.636 303.826 146.511C302.978 144.387 305.214 141.452 308.837 139.984ZM292.61 59.9168C296.233 58.4491 299.895 58.9512 300.743 61.0755C301.591 63.1998 299.355 66.1352 295.732 67.6029C292.109 69.0706 288.447 68.5685 287.6 66.4442C286.752 64.3199 288.987 61.3845 292.61 59.9168ZM291.724 84.3657C295.347 82.8979 299.008 83.4001 299.856 85.5244C300.704 87.6487 298.469 90.5841 294.846 92.0518C291.223 93.5195 287.561 93.0174 286.713 90.8931C285.865 88.7688 288.101 85.8334 291.724 84.3657ZM290.876 108.467C294.499 106.999 298.16 107.501 299.008 109.626C299.856 111.75 297.621 114.685 293.998 116.153C290.375 117.621 286.713 117.119 285.865 114.994C285.017 112.87 287.253 109.935 290.876 108.467ZM290.028 132.8C293.651 131.332 297.312 131.834 298.16 133.959C299.008 136.083 296.773 139.018 293.15 140.486C289.527 141.954 285.865 141.452 285.017 139.327C284.169 137.203 286.405 134.268 290.028 132.8ZM272.992 76.834C276.615 75.3663 280.276 75.8684 281.124 77.9927C281.972 80.117 279.737 83.0525 276.114 84.5202C272.49 85.9879 268.829 85.4857 267.981 83.3614C267.133 81.2371 269.368 78.3017 272.992 76.834ZM272.105 101.09C275.728 99.622 279.39 100.124 280.238 102.248C281.086 104.373 278.85 107.308 275.227 108.776C271.604 110.244 267.942 109.741 267.094 107.617C266.246 105.493 268.482 102.557 272.105 101.09ZM271.219 125.307C274.842 123.839 278.503 124.341 279.351 126.466C280.199 128.59 277.964 131.525 274.341 132.993C270.717 134.461 267.056 133.959 266.208 131.834C265.36 129.71 267.595 126.775 271.219 125.307ZM253.334 93.674C256.957 92.2063 260.619 92.7084 261.467 94.8327C262.315 96.957 260.079 99.8924 256.456 101.36C252.833 102.828 249.172 102.326 248.324 100.201C247.476 98.0771 249.711 95.1417 253.334 93.674ZM252.486 117.891C256.109 116.423 259.771 116.925 260.619 119.05C261.467 121.174 259.232 124.11 255.608 125.577C251.985 127.045 248.324 126.543 247.476 124.418C246.628 122.294 248.863 119.359 252.486 117.891ZM216.602 189.847C212.363 188.611 214.02 184.942 214.02 184.942C214.02 184.942 220.842 155.935 222.076 151.262C223.309 146.589 229.476 147.593 229.476 147.593C225.622 148.327 225.39 150.49 225.39 150.49C225.39 150.49 217.759 183.088 216.872 186.912C216.448 188.766 216.448 189.5 216.564 189.809C216.679 189.809 216.795 189.886 216.911 189.924C216.911 189.924 216.679 190.156 216.564 189.809L216.602 189.847ZM224.195 188.534L230.517 159.605C230.517 159.605 231.557 154.429 235.72 158.871C235.72 158.871 250.636 171.926 278.657 167.638C278.657 167.638 279.737 170.072 274.88 171.81C270.024 173.548 224.157 188.534 224.157 188.534H224.195Z" fill="white"/>
<path d="M87.5202 309.967C87.5202 309.967 82.9721 314.756 80.698 314.872C78.3854 314.988 74.03 317.537 70.908 321.168C70.908 321.168 86.0556 337.544 106.599 351.797C109.683 348.166 111.533 343.454 111.302 341.136C111.07 338.819 115.079 333.605 115.079 333.605L101.319 321.786L87.5588 309.967H87.5202Z" fill="white"/>
<path d="M123.327 268.099L112.573 280.69C114.963 289.033 119.781 307.418 128.608 317.769L141.404 302.822C141.404 302.822 123.635 290.539 123.366 268.099H123.327Z" fill="white"/>
<path d="M110.531 283.046L90.9121 305.989C89.8328 307.225 90.0641 309.156 91.3746 310.276L114.154 329.858C115.464 330.978 117.391 330.901 118.432 329.627L128.569 317.808C128.569 317.808 110.801 305.525 110.531 283.085V283.046Z" fill="white"/>
<path d="M136.702 259.409C135.044 258.791 133.58 258.211 132.231 257.671L125.37 265.704C127.76 274.047 132.578 292.432 141.365 302.783L154.162 287.836C154.162 287.836 139.747 277.832 136.702 259.37V259.409Z" fill="white"/>
<path d="M162.911 267.249C164.145 269.296 165.494 271.227 166.92 272.966L170.35 268.987C167.768 268.408 165.262 267.829 162.911 267.288V267.249Z" fill="white"/>
<path d="M160.098 266.554C152.543 264.661 146.261 262.73 141.134 260.992C143.909 269.837 148.072 280.768 154.162 287.874L166.958 272.927C166.958 272.927 163.798 270.725 160.136 266.515L160.098 266.554Z" fill="white"/>
</g>
<defs>
<filter id="filter0_d_1_1088" x="0.63446" y="-1.52588e-05" width="468.697" height="495.015" filterUnits="userSpaceOnUse" color-interpolation-filters="sRGB">
<feFlood flood-opacity="0" result="BackgroundImageFix"/>
<feColorMatrix in="SourceAlpha" type="matrix" values="0 0 0 0 0 0 0 0 0 0 0 0 0 0 0 0 0 0 127 0" result="hardAlpha"/>
<feOffset dy="4"/>
<feGaussianBlur stdDeviation="7"/>
<feComposite in2="hardAlpha" operator="out"/>
<feColorMatrix type="matrix" values="0 0 0 0 0 0 0 0 0 0 0 0 0 0 0 0 0 0 0.2 0"/>
<feBlend mode="normal" in2="BackgroundImageFix" result="effect1_dropShadow_1_1088"/>
<feBlend mode="normal" in="SourceGraphic" in2="effect1_dropShadow_1_1088" result="shape"/>
</filter>
</defs>
</svg>
