<svg width="212" height="59" viewBox="0 0 212 59" fill="none" xmlns="http://www.w3.org/2000/svg">
<g clip-path="url(#clip0_57_370)">
<path d="M5.78356 37.0499H0L1.54685 30.844H18.4047L16.8579 37.0499H11.1017L5.76303 58.5131H0.438045L5.77672 37.0499H5.78356Z" fill="#F9F9F9"/>
<path d="M38.3084 30.844L31.4229 58.5131H26.0979L28.7809 47.7198H21.519L18.8359 58.5131H13.5109L20.3965 30.844H25.7214L23.1342 41.2397H30.3962L32.9834 30.844H38.3084Z" fill="#F9F9F9"/>
<path d="M51.8125 52.465L50.3067 58.5131H35.1942L42.0797 30.844H56.8432L55.3374 36.8921H45.8441L44.6806 41.5551H53.0445L51.5866 47.4043H43.2227L41.9633 52.465H51.8057H51.8125Z" fill="#F9F9F9"/>
<path d="M59.6973 59L70.3267 0H85.8842C89.1421 0 91.5924 0.726871 93.2351 2.18061C94.8846 3.63436 95.8771 5.6984 96.2193 8.37959C96.5615 11.0608 96.3972 14.2563 95.7333 17.9661C95.0899 21.5456 94.1796 24.6519 93.0161 27.3057C91.8457 29.9526 90.2441 32.0029 88.2113 33.4566C86.1785 34.9104 83.5297 35.6373 80.2717 35.6373H75.4874L71.2781 59H59.7041H59.6973ZM77.3902 25.0428H78.061C80.2443 25.0428 81.6954 24.4325 82.4072 23.1982C83.119 21.9707 83.6871 20.1604 84.1183 17.7672C84.5221 15.5317 84.5906 13.8106 84.3305 12.59C84.0704 11.3694 83.0506 10.7659 81.2642 10.7659H79.9569L77.3834 25.0428H77.3902ZM89.4433 59L105.76 0H125.733L120.695 59H109.552L110.428 49.4821H103.338L100.887 59H89.4433ZM105.87 40.0602H111.222L114.049 10.0596H113.515L105.87 40.0602ZM124.309 59L134.931 0H151.125C155.362 0 158.34 1.17945 160.057 3.53835C161.775 5.89726 162.22 9.34647 161.406 13.8791L156.43 41.5002C155.424 47.0889 153.672 51.4021 151.173 54.4399C148.675 57.4777 144.986 59 140.099 59H124.309ZM138.025 48.5701H140.065C142.228 48.5701 143.501 47.5209 143.877 45.4226L149.36 14.9831C149.716 13.0151 149.681 11.7465 149.257 11.1774C148.833 10.6082 147.82 10.3202 146.218 10.3202H144.911L138.018 48.5701H138.025ZM158.1 59L168.723 0H192.274L190.221 11.3968H178.647L176.58 22.8964H187.689L185.69 33.9915H174.581L172.152 47.5003H184.499L182.425 59H158.1ZM186.306 59L196.929 0H208.708L199.892 48.9404H212.007L210.193 58.9931H186.306V59Z" fill="#F9F9F9"/>
</g>
<defs>
<clipPath id="clip0_57_370">
<rect width="212" height="59" fill="white"/>
</clipPath>
</defs>
</svg>
